<svg width="428" height="339" viewBox="0 0 428 339" fill="none" xmlns="http://www.w3.org/2000/svg">
<circle cx="360.001" cy="132.373" r="67.2" fill="#E2E3E5"/>
<circle cx="55.2" cy="259.573" r="55.2" fill="#E2E3E5"/>
<ellipse cx="11.6685" cy="10.942" rx="11.6685" ry="10.942" transform="matrix(0.993561 -0.113302 0.113901 0.993492 145.602 163.71)" fill="#FF7F81"/>
<path d="M378.349 295.026C373.671 294.131 372.242 289.92 370.367 286.605C366.349 279.48 365.581 271.727 366.781 263.6C367.563 258.307 366.093 253.08 364.61 247.894C362.345 239.967 356.952 234.032 352.394 227.536C349.509 223.419 345.895 219.823 344.224 214.864C343.118 211.562 341.756 208.421 341.891 204.812C341.972 202.486 341.163 200.106 341.338 197.794C342.08 187.662 341.918 177.503 343.051 167.357C343.873 159.925 344.399 152.132 342.012 144.646C341.621 143.43 341.985 141.986 341.958 140.65C341.837 134.421 339.828 128.686 337.711 122.898C336.417 119.369 334.327 116.348 332.372 113.354C330.255 110.133 327.127 107.499 324.161 104.839C320.803 101.845 317.689 98.5433 314.709 95.1748C310.354 90.2424 309.99 83.8529 308.561 77.8377C306.875 70.7532 306.43 63.4815 304.408 56.3835C300.484 42.6021 293.122 31.24 282.633 21.7093C276.633 16.2555 269.527 12.6197 262.152 9.19771C251.783 4.38556 240.875 2.76814 229.725 2.4206C223.253 2.22009 216.794 3.50333 210.511 5.29452C208.084 5.98961 205.374 6.01635 203.136 7.05898C196.543 10.1468 189.612 12.339 183.113 15.8278C170.965 22.3509 160.003 30.4247 149.19 38.7657C142.03 44.2863 135.464 50.5555 129.329 57.1588C123.1 63.8825 118.071 71.6621 114.282 79.9096C110.561 87.9967 109.617 97.0195 110.925 105.868C111.343 108.729 112.718 111.817 114.134 114.57C118.259 122.577 123.585 129.608 131.257 134.688C132.255 135.343 133.01 135.396 133.981 134.982" stroke="black" stroke-width="4.8" stroke-linecap="round" stroke-linejoin="round"/>
<path d="M126.217 147.493C123.925 148.442 124.518 150.822 124.343 152.359C123.83 156.797 121.781 160.526 119.395 163.988C114.5 171.099 109.66 178.251 106.923 186.458C105.601 190.415 105.736 194.733 107.327 198.783C109.242 203.648 110.819 208.648 112.451 213.58C114.001 218.245 112.882 223.579 110.347 228.19C107.192 233.952 102.568 238.443 97.5249 242.547C93.8035 245.568 90.5811 249.043 88.5181 253.294C86.4417 257.598 86.59 262.37 87.5069 266.942C88.262 270.644 88.8687 274.253 88.1002 277.983C86.8193 284.252 82.2754 287.62 76.9766 290.347" stroke="black" stroke-width="4.8" stroke-linecap="round" stroke-linejoin="round"/>
<path d="M320.372 335.795C317.622 331.852 317.177 327.053 315.37 322.736C309.37 308.393 303.761 293.903 296.844 279.948C292.813 271.834 288.485 263.921 283.712 256.208C277.968 246.918 272.062 237.761 263.676 230.61C260.022 227.495 256.462 223.846 251.595 222.59C248.561 221.801 245.325 221.841 242.184 221.507" stroke="black" stroke-width="4.8" stroke-linecap="round" stroke-linejoin="round"/>
<path d="M141.898 139.3C142.923 141.118 142.33 143.083 142.37 144.981C142.505 150.141 142.033 155.327 143.732 160.353C146.86 169.616 149.786 179.04 155.638 187.007C159.885 192.782 166.303 196.123 172.923 198.73C178.451 200.909 184.343 201.657 190.262 201.403C194.847 201.203 196.546 202.7 196.384 207.472C196.155 214.369 196.33 221.28 196.33 228.191" stroke="black" stroke-width="4.8" stroke-linecap="round" stroke-linejoin="round"/>
<path d="M172.059 230.864C172.166 230.918 172.315 230.944 172.396 231.038C176.023 235.182 181.038 237.294 185.946 239.058C190.45 240.676 195.465 241.451 200.373 240.849C206.4 240.114 212.171 238.216 217.955 236.371C219.492 235.877 220.895 235.155 222.256 234.487C227.515 231.893 232.76 229.193 237.748 226.119C240.175 224.622 242.157 222.897 241.119 218.78C240.135 214.877 240.27 210.372 241.456 206.135C242.656 201.884 241.713 197.206 243.87 193.116C246.539 188.049 245.326 181.713 249.236 177.062C249.506 176.741 249.587 176.179 249.573 175.738C249.506 170.913 252.728 168.961 256.652 167.357C264.418 164.176 269.717 158.455 272.4 150.648C273.331 147.935 272.495 144.794 271.119 142.187C267.398 135.129 263.798 133.659 255.304 135.29C254.009 135.544 252.782 135.263 251.569 134.354C242.144 127.269 235.362 118.287 231.357 107.245C230.859 105.882 230.4 104.465 229.645 103.249C228.472 101.377 229.322 99.6663 229.686 97.8751" stroke="black" stroke-width="4.8" stroke-linecap="round" stroke-linejoin="round"/>
<path d="M167.002 235.208C166.274 237.374 164.009 238.069 162.526 239.445C155.029 246.423 147.924 253.695 141.263 261.501C134.886 268.96 129.169 276.967 124.167 285.174C118.113 295.119 112.288 305.412 107.879 316.346C106.531 319.688 105.101 323.003 103.969 326.425" stroke="black" stroke-width="4.8" stroke-linecap="round" stroke-linejoin="round"/>
<path d="M180.148 94.1856C183.074 96.311 185.137 99.2651 187.578 101.858C193.969 108.622 200.791 114.838 208.369 120.385C214.153 124.622 219.87 128.82 226.342 131.934C232.288 134.795 238.396 137.214 244.881 138.631C248.292 139.38 250.76 138.417 252.634 135.624" stroke="black" stroke-width="4.8" stroke-linecap="round" stroke-linejoin="round"/>
<path d="M179.81 89.5072C184.34 85.0827 186.592 79.8829 185.567 73.4667C185.109 70.5527 183.895 68.1734 181.482 66.4624C178.462 64.3103 175.185 65.5801 173.783 69.8175C171.477 76.7417 172.205 83.1712 177.787 88.5181" stroke="black" stroke-width="4.8" stroke-linecap="round" stroke-linejoin="round"/>
<path d="M178.126 94.1856C166.099 108.234 152.656 120.853 138.688 132.95" stroke="black" stroke-width="4.8" stroke-linecap="round" stroke-linejoin="round"/>
<path d="M202.396 149.659C203.987 144.432 202.166 140.476 197.65 137.669C196.423 136.907 195.762 136.024 195.641 134.621C195.546 133.592 194.818 133.471 193.969 133.618" stroke="black" stroke-width="4.8" stroke-linecap="round" stroke-linejoin="round"/>
<path d="M204.755 172.383C203.744 175.604 201.964 178.091 199.105 180.176C196.692 181.94 193.834 181.914 191.622 181.807C187.564 181.62 183.047 181.807 179.514 179.013C178.571 178.264 177.708 178.505 176.777 178.398" stroke="black" stroke-width="4.8" stroke-linecap="round" stroke-linejoin="round"/>
<path d="M181.498 154.177C180.042 155.861 178.909 157.732 179.165 160.018C179.489 162.852 181.296 164.028 184.869 164.028" stroke="black" stroke-width="4.8" stroke-linecap="round" stroke-linejoin="round"/>
<path d="M152.844 139.634C158.385 142.053 160.624 146.732 158.911 152.333" stroke="black" stroke-width="4.8" stroke-linecap="round" stroke-linejoin="round"/>
<ellipse cx="13.225" cy="7.53751" rx="13.225" ry="7.53751" transform="matrix(0.993561 -0.113302 0.113901 0.993492 212.328 153.77)" fill="#FF7F81"/>
</svg>
